<svg xmlns="http://www.w3.org/2000/svg" width="52.25" height="38.406" viewBox="0 0 52.25 38.406">
  <defs>
    <style>
      .cls-1 {
        fill: #69a7ac;
        fill-rule: evenodd;
      }
    </style>
  </defs>
  <path id="question_icon_num_5" class="cls-1" d="M340.118,265.219a16.681,16.681,0,0,0,3.188-10.524c0-9.793-5.761-15.055-12.789-15.055-6.99,0-12.79,5.262-12.79,15.055,0,9.832,5.8,15.132,12.79,15.132a12.275,12.275,0,0,0,6.529-1.805l2.842,3.188a2.31,2.31,0,0,0,1.728.883,2.166,2.166,0,0,0,2.189-2.074,2.325,2.325,0,0,0-.691-1.574Zm-5.953-6.606a2.364,2.364,0,0,0-1.613-.922,2.222,2.222,0,0,0-2.3,2.074,2.146,2.146,0,0,0,.576,1.459l3.418,3.687a7.353,7.353,0,0,1-3.725.961c-4.993,0-7.95-4.3-7.95-11.177,0-6.836,2.957-11.1,7.95-11.1s7.95,4.263,7.95,11.1a15.362,15.362,0,0,1-1.46,7.106ZM353.6,240.084a1.326,1.326,0,0,1,1.584-1.392H366.27a2.5,2.5,0,0,0,0-4.993H353.213c-2.544,0-4.32,1.393-4.512,3.649l-1.008,12.721a2.853,2.853,0,0,0,3.12,3.12,4.186,4.186,0,0,0,2.4-.912,7.99,7.99,0,0,1,4.129-1.2c4.176,0,6.864,2.544,6.864,6.913,0,4.224-2.832,7.1-6.864,7.1a10.162,10.162,0,0,1-6.721-2.4,2.657,2.657,0,0,0-1.44-.576,2.542,2.542,0,0,0-2.736,2.5,2.5,2.5,0,0,0,1.056,2.16,15.939,15.939,0,0,0,9.937,3.121c7.152,0,12.529-4.8,12.529-12.1s-5.233-11.425-12.625-11.425a8.965,8.965,0,0,0-4.369,1.2Z" transform="translate(-317.719 -233.688)"/>
</svg>
