<svg xmlns="http://www.w3.org/2000/svg" width="49.656" height="38.406" viewBox="0 0 49.656 38.406">
  <defs>
    <style>
      .cls-1 {
        fill: #69a7ac;
        fill-rule: evenodd;
      }
    </style>
  </defs>
  <path id="question_icon_num_7" class="cls-1" d="M341.1,265.219a16.681,16.681,0,0,0,3.187-10.524c0-9.793-5.761-15.055-12.789-15.055-6.99,0-12.789,5.262-12.789,15.055,0,9.832,5.8,15.132,12.789,15.132a12.272,12.272,0,0,0,6.529-1.805l2.842,3.188a2.31,2.31,0,0,0,1.728.883,2.166,2.166,0,0,0,2.19-2.074,2.326,2.326,0,0,0-.692-1.574Zm-5.953-6.606a2.368,2.368,0,0,0-1.614-.922,2.222,2.222,0,0,0-2.3,2.074,2.151,2.151,0,0,0,.576,1.459l3.418,3.687a7.353,7.353,0,0,1-3.725.961c-4.993,0-7.95-4.3-7.95-11.177,0-6.836,2.957-11.1,7.95-11.1s7.95,4.263,7.95,11.1a15.375,15.375,0,0,1-1.459,7.106ZM347.432,233.7a2.457,2.457,0,0,0,0,4.9h15.217c-4.176,9.025-8.353,17.857-12.289,26.642a5.087,5.087,0,0,0-.528,1.872c0,1.537,1.536,2.449,3.216,2.449a2.573,2.573,0,0,0,2.544-1.729c4.033-9.6,7.681-17.953,11.761-26.882a9.381,9.381,0,0,0,1.009-3.936,3.285,3.285,0,0,0-3.6-3.313H347.432Z" transform="translate(-318.719 -233.688)"/>
</svg>
