<svg xmlns="http://www.w3.org/2000/svg" width="43.062" height="38.938" viewBox="0 0 43.062 38.938">
  <defs>
    <style>
      .cls-1 {
        fill: #69a7ac;
        fill-rule: evenodd;
      }
    </style>
  </defs>
  <path id="question_icon_num_1" class="cls-1" d="M340.881,265.219a16.681,16.681,0,0,0,3.187-10.524c0-9.793-5.761-15.055-12.789-15.055-6.99,0-12.789,5.262-12.789,15.055,0,9.832,5.8,15.132,12.789,15.132a12.272,12.272,0,0,0,6.529-1.805l2.842,3.188a2.31,2.31,0,0,0,1.728.883,2.166,2.166,0,0,0,2.19-2.074,2.326,2.326,0,0,0-.692-1.574Zm-5.953-6.606a2.368,2.368,0,0,0-1.614-.922,2.222,2.222,0,0,0-2.3,2.074,2.151,2.151,0,0,0,.576,1.459L335,264.911a7.353,7.353,0,0,1-3.725.961c-4.993,0-7.95-4.3-7.95-11.177,0-6.836,2.957-11.1,7.95-11.1s7.95,4.263,7.95,11.1a15.375,15.375,0,0,1-1.459,7.106Zm20.979,8.113a2.5,2.5,0,0,0,2.784,2.833,2.571,2.571,0,0,0,2.881-2.833v-30.29a2.976,2.976,0,0,0-3.169-3.265,4.8,4.8,0,0,0-3.552,1.585c-2.5,2.256-4.656,4.032-7.249,6.048a2.525,2.525,0,0,0-1.1,2.208,2.5,2.5,0,0,0,2.689,2.593,3.006,3.006,0,0,0,2.112-.817c1.728-1.488,3.12-2.832,4.608-4.32v26.258Z" transform="translate(-318.5 -233.156)"/>
</svg>
