<svg xmlns="http://www.w3.org/2000/svg" width="51.782" height="39.156" viewBox="0 0 51.782 39.156">
  <defs>
    <style>
      .cls-1 {
        fill: #69a7ac;
        fill-rule: evenodd;
      }
    </style>
  </defs>
  <path id="question_icon_num_3" class="cls-1" d="M340.3,265.219a16.681,16.681,0,0,0,3.187-10.524c0-9.793-5.761-15.055-12.789-15.055-6.99,0-12.789,5.262-12.789,15.055,0,9.832,5.8,15.132,12.789,15.132a12.272,12.272,0,0,0,6.529-1.805l2.842,3.188a2.31,2.31,0,0,0,1.729.883,2.166,2.166,0,0,0,2.189-2.074,2.326,2.326,0,0,0-.692-1.574Zm-5.953-6.606a2.366,2.366,0,0,0-1.613-.922,2.223,2.223,0,0,0-2.305,2.074,2.151,2.151,0,0,0,.576,1.459l3.418,3.687a7.353,7.353,0,0,1-3.725.961c-4.993,0-7.95-4.3-7.95-11.177,0-6.836,2.957-11.1,7.95-11.1s7.95,4.263,7.95,11.1a15.375,15.375,0,0,1-1.459,7.106Zm19.835-10.7a2.168,2.168,0,0,0-2.256,2.352,2.207,2.207,0,0,0,2.256,2.4h3.024c4.224,0,6.721,2.3,6.721,5.953,0,3.7-2.689,6.48-6.913,6.48a11.659,11.659,0,0,1-7.153-2.544,2.349,2.349,0,0,0-1.392-.384,2.461,2.461,0,0,0-2.544,2.5,2.6,2.6,0,0,0,1.056,2.208,16.4,16.4,0,0,0,10.033,3.025c7.489,0,12.673-4.657,12.673-11.521,0-4.081-2.592-7.249-6.864-8.545,3.744-1.008,5.664-3.648,5.664-7.585,0-5.472-4.32-9.313-11.329-9.313a15.279,15.279,0,0,0-9.553,3.5,2.064,2.064,0,0,0-.72,1.728,2.715,2.715,0,0,0,2.688,2.688,2.351,2.351,0,0,0,1.729-.72,9.252,9.252,0,0,1,5.856-2.4c3.5,0,5.713,1.968,5.713,4.752,0,3.409-2.065,5.425-5.953,5.425h-2.736Z" transform="translate(-317.906 -232.938)"/>
</svg>
