<svg xmlns="http://www.w3.org/2000/svg" width="54.218" height="39.032" viewBox="0 0 54.218 39.032">
  <defs>
    <style>
      .cls-1 {
        fill: #69a7ac;
        fill-rule: evenodd;
      }
    </style>
  </defs>
  <path id="question_icon_num_4" class="cls-1" d="M339.725,265.219a16.681,16.681,0,0,0,3.187-10.524c0-9.793-5.76-15.055-12.789-15.055-6.99,0-12.789,5.262-12.789,15.055,0,9.832,5.8,15.132,12.789,15.132a12.272,12.272,0,0,0,6.529-1.805l2.842,3.188a2.31,2.31,0,0,0,1.729.883,2.166,2.166,0,0,0,2.189-2.074,2.326,2.326,0,0,0-.692-1.574Zm-5.953-6.606a2.366,2.366,0,0,0-1.613-.922,2.223,2.223,0,0,0-2.305,2.074,2.151,2.151,0,0,0,.576,1.459l3.419,3.687a7.359,7.359,0,0,1-3.726.961c-4.993,0-7.95-4.3-7.95-11.177,0-6.836,2.957-11.1,7.95-11.1s7.95,4.263,7.95,11.1a15.375,15.375,0,0,1-1.459,7.106Zm27.035,2.593v5.664a2.382,2.382,0,0,0,2.593,2.689,2.465,2.465,0,0,0,2.736-2.689v-5.664h2.88c1.68,0,2.544-.816,2.544-2.256s-0.864-2.209-2.544-2.209h-2.88V237.3c0-2.832-1.056-4.225-3.744-4.225-2.113,0-3.217.769-4.417,2.785l-11.041,18.625a5.806,5.806,0,0,0-1.056,3.457c0,2.112,1.248,3.264,3.5,3.264h11.425Zm0-4.465h-9.888l5.664-9.888a88.077,88.077,0,0,0,4.272-8.5h0.336c-0.24,3.216-.384,6.336-0.384,9.553v8.832Z" transform="translate(-317.344 -233.062)"/>
</svg>
