<svg xmlns="http://www.w3.org/2000/svg" width="53.157" height="39.156" viewBox="0 0 53.157 39.156">
  <defs>
    <style>
      .cls-1 {
        fill: #69a7ac;
        fill-rule: evenodd;
      }
    </style>
  </defs>
  <path id="question_icon_num_6" class="cls-1" d="M339.926,265.219a16.675,16.675,0,0,0,3.188-10.524c0-9.793-5.761-15.055-12.789-15.055-6.99,0-12.79,5.262-12.79,15.055,0,9.832,5.8,15.132,12.79,15.132a12.272,12.272,0,0,0,6.529-1.805l2.842,3.188a2.31,2.31,0,0,0,1.728.883,2.166,2.166,0,0,0,2.189-2.074,2.325,2.325,0,0,0-.691-1.574Zm-5.953-6.606a2.364,2.364,0,0,0-1.613-.922,2.222,2.222,0,0,0-2.3,2.074,2.151,2.151,0,0,0,.576,1.459l3.418,3.687a7.353,7.353,0,0,1-3.725.961c-4.993,0-7.95-4.3-7.95-11.177,0-6.836,2.957-11.1,7.95-11.1s7.95,4.263,7.95,11.1a15.362,15.362,0,0,1-1.46,7.106Zm21.064-10.7a45.825,45.825,0,0,1,10.081-10.465,2.14,2.14,0,0,0,.864-1.776,2.7,2.7,0,0,0-2.736-2.737,2.893,2.893,0,0,0-1.776.672,54.306,54.306,0,0,0-10.417,11.425c-3.312,5.329-4.416,8.353-4.416,12.77,0,7.3,4.8,12.1,11.953,12.1s12.1-5.041,12.1-11.857c0-6.961-4.8-11.329-11.569-11.329A6.852,6.852,0,0,0,355.037,247.909Zm3.553,17.425c-3.985,0-6.481-2.784-6.481-7.44a10.4,10.4,0,0,1,.624-3.841,7.384,7.384,0,0,1,6.193-3.024c3.7,0,6.192,2.688,6.192,7.009C365.118,262.5,362.622,265.334,358.59,265.334Z" transform="translate(-317.531 -232.938)"/>
</svg>
