<svg xmlns="http://www.w3.org/2000/svg" width="52.093" height="39.156" viewBox="0 0 52.093 39.156">
  <defs>
    <style>
      .cls-1 {
        fill: #69a7ac;
        fill-rule: evenodd;
      }
    </style>
  </defs>
  <path id="question_icon_num_2" class="cls-1" d="M340.076,265.219a16.681,16.681,0,0,0,3.188-10.524c0-9.793-5.761-15.055-12.79-15.055-6.989,0-12.789,5.262-12.789,15.055,0,9.832,5.8,15.132,12.789,15.132a12.276,12.276,0,0,0,6.53-1.805l2.842,3.188a2.308,2.308,0,0,0,1.728.883,2.166,2.166,0,0,0,2.189-2.074,2.325,2.325,0,0,0-.691-1.574Zm-5.953-6.606a2.366,2.366,0,0,0-1.613-.922,2.222,2.222,0,0,0-2.3,2.074,2.146,2.146,0,0,0,.576,1.459l3.418,3.687a7.354,7.354,0,0,1-3.726.961c-4.992,0-7.95-4.3-7.95-11.177,0-6.836,2.958-11.1,7.95-11.1s7.951,4.263,7.951,11.1a15.375,15.375,0,0,1-1.46,7.106Zm19.66,5.569c3.025-2.736,5.377-4.848,9.361-9.025C367.465,250.6,369,247.621,369,243.2c0-6.144-3.841-10.273-10.7-10.273a15.084,15.084,0,0,0-10.033,4.225,2.5,2.5,0,0,0-.96,1.968A2.68,2.68,0,0,0,351.911,241c2.3-2.256,4.465-3.12,6.433-3.12,3.024,0,4.9,1.824,4.9,5.424,0,2.785-1.3,5.281-4.272,8.785a102.909,102.909,0,0,1-10.8,10.705,3.988,3.988,0,0,0-1.488,3.264,2.816,2.816,0,0,0,2.832,3.073h17.714a2.275,2.275,0,0,0,2.544-2.449,2.309,2.309,0,0,0-2.544-2.5H353.783Z" transform="translate(-317.688 -232.938)"/>
</svg>
