<svg xmlns="http://www.w3.org/2000/svg" width="53.375" height="39.156" viewBox="0 0 53.375 39.156">
  <defs>
    <style>
      .cls-1 {
        fill: #69a7ac;
        fill-rule: evenodd;
      }
    </style>
  </defs>
  <path id="question_icon_num_8" class="cls-1" d="M339.869,265.219a16.681,16.681,0,0,0,3.188-10.524c0-9.793-5.761-15.055-12.79-15.055-6.99,0-12.789,5.262-12.789,15.055,0,9.832,5.8,15.132,12.789,15.132a12.272,12.272,0,0,0,6.529-1.805l2.842,3.188a2.31,2.31,0,0,0,1.729.883,2.166,2.166,0,0,0,2.189-2.074,2.326,2.326,0,0,0-.692-1.574Zm-5.953-6.606a2.366,2.366,0,0,0-1.613-.922A2.223,2.223,0,0,0,330,259.765a2.151,2.151,0,0,0,.576,1.459l3.419,3.687a7.359,7.359,0,0,1-3.726.961c-4.993,0-7.95-4.3-7.95-11.177,0-6.836,2.957-11.1,7.95-11.1s7.95,4.263,7.95,11.1a15.375,15.375,0,0,1-1.459,7.106Zm19.547-7.776c-5.041,1.776-7.2,4.656-7.2,8.689,0,6.24,4.7,10.369,12.289,10.369,7.489,0,12.289-4.177,12.289-10.417,0-4.369-2.16-7.393-7.536-9.361,3.84-1.536,5.664-4.368,5.664-8.065,0-5.424-4.272-9.121-10.8-9.121-6.384,0-10.753,3.889-10.753,9.361C347.414,246.373,349.382,249.205,353.463,250.837Zm10.321-8.449c0,2.784-1.344,4.8-4.8,6.049-4.8-1.3-6.336-3.217-6.336-6.049,0-3.072,2.256-5.04,5.52-5.04C361.576,237.348,363.784,239.412,363.784,242.388Zm-5.953,10.273c5.857,1.728,7.489,3.7,7.489,6.769,0,3.792-2.5,6-6.769,6-4.224,0-6.768-2.256-6.768-6C351.783,256.165,353.847,254.053,357.831,252.661Z" transform="translate(-317.469 -232.938)"/>
</svg>
